<svg width="25" height="25" viewBox="0 0 25 25" fill="none" xmlns="http://www.w3.org/2000/svg">
<path fill-rule="evenodd" clip-rule="evenodd" d="M4.5625 12.0625C4.5625 11.5102 5.01022 11.0625 5.5625 11.0625H19.5625C20.1148 11.0625 20.5625 11.5102 20.5625 12.0625C20.5625 12.6148 20.1148 13.0625 19.5625 13.0625H5.5625C5.01022 13.0625 4.5625 12.6148 4.5625 12.0625Z" fill="black"/>
<path fill-rule="evenodd" clip-rule="evenodd" d="M11.8554 4.35539C12.2459 3.96487 12.8791 3.96487 13.2696 4.35539L20.2696 11.3554C20.6601 11.7459 20.6601 12.3791 20.2696 12.7696L13.2696 19.7696C12.8791 20.1601 12.2459 20.1601 11.8554 19.7696C11.4649 19.3791 11.4649 18.7459 11.8554 18.3554L18.1483 12.0625L11.8554 5.76961C11.4649 5.37908 11.4649 4.74592 11.8554 4.35539Z" fill="black"/>
</svg>
