<svg width="17" height="21" viewBox="0 0 17 21" fill="none" xmlns="http://www.w3.org/2000/svg">
<path fill-rule="evenodd" clip-rule="evenodd" d="M3.25 2.75C2.98478 2.75 2.73043 2.85536 2.54289 3.04289C2.35536 3.23043 2.25 3.48478 2.25 3.75V17.8068L7.66876 13.9363C8.01646 13.6879 8.48354 13.6879 8.83124 13.9363L14.25 17.8068V3.75C14.25 3.48478 14.1446 3.23043 13.9571 3.04289C13.7696 2.85536 13.5152 2.75 13.25 2.75H3.25ZM1.12868 1.62868C1.69129 1.06607 2.45435 0.75 3.25 0.75H13.25C14.0456 0.75 14.8087 1.06607 15.3713 1.62868C15.9339 2.19129 16.25 2.95435 16.25 3.75V19.75C16.25 20.1246 16.0407 20.4678 15.7076 20.6392C15.3745 20.8106 14.9736 20.7815 14.6688 20.5637L8.25 15.9789L1.83124 20.5637C1.52642 20.7815 1.12549 20.8106 0.792418 20.6392C0.459347 20.4678 0.25 20.1246 0.25 19.75V3.75C0.25 2.95435 0.56607 2.19129 1.12868 1.62868Z" fill="black"/>
</svg>
