<svg width="23" height="23" viewBox="0 0 23 23" fill="none" xmlns="http://www.w3.org/2000/svg">
<path fill-rule="evenodd" clip-rule="evenodd" d="M0.177734 11.6963C0.177734 5.53704 5.17083 0.543945 11.3301 0.543945C17.4894 0.543945 22.4825 5.53704 22.4825 11.6963C22.4825 17.8556 17.4894 22.8487 11.3301 22.8487C5.17083 22.8487 0.177734 17.8556 0.177734 11.6963ZM12.3142 5.1361C12.3142 4.59264 11.8736 4.15207 11.3301 4.15207C10.7867 4.15207 10.3461 4.59264 10.3461 5.1361V11.6963C10.3461 12.0356 10.5209 12.351 10.8086 12.5308L14.7447 14.9909C15.2056 15.2789 15.8127 15.1388 16.1007 14.6779C16.3887 14.2171 16.2486 13.61 15.7878 13.322L12.3142 11.1509V5.1361Z" fill="#6C5FBC"/>
</svg>
