<svg width="22.000000" height="19.000000" viewBox="0 0 22 19" fill="none" xmlns="http://www.w3.org/2000/svg" xmlns:xlink="http://www.w3.org/1999/xlink">
	<desc>
			Created with Pixso.
	</desc>
	<defs/>
	<path id="Icon" d="M19.84 0.69C20.17 0.37 20.17 -0.16 19.84 -0.49C19.52 -0.81 18.99 -0.81 18.66 -0.49L0.88 17.3C0.55 17.63 0.55 18.16 0.88 18.48C1.2 18.81 1.73 18.81 2.05 18.48L5.22 15.32C6.74 16.03 8.49 16.5 10.36 16.5C13.34 16.5 16.02 15.3 17.94 13.83C18.91 13.09 19.7 12.26 20.26 11.45C20.81 10.66 21.2 9.8 21.2 9C21.2 8.19 20.81 7.33 20.26 6.54C19.7 5.73 18.91 4.91 17.94 4.17C17.65 3.94 17.34 3.73 17.02 3.52L19.84 0.69ZM10.36 1.49C11.51 1.49 12.61 1.67 13.64 1.97C13.84 2.03 13.9 2.28 13.75 2.42L12.83 3.34C12.77 3.41 12.67 3.44 12.57 3.42C11.86 3.25 11.12 3.16 10.36 3.16C7.82 3.16 5.49 4.19 3.79 5.49C2.94 6.14 2.27 6.84 1.82 7.49C1.36 8.16 1.19 8.69 1.19 9C1.19 9.31 1.36 9.83 1.82 10.5C2.22 11.07 2.78 11.68 3.48 12.26C3.61 12.36 3.62 12.56 3.5 12.67L2.71 13.46C2.61 13.56 2.45 13.57 2.34 13.48C1.57 12.83 0.93 12.14 0.45 11.45C-0.09 10.66 -0.48 9.8 -0.48 9C-0.48 8.19 -0.09 7.33 0.45 6.54C1.02 5.73 1.81 4.91 2.78 4.17C4.7 2.69 7.37 1.49 10.36 1.49ZM15.81 4.73L13.84 6.7C14.27 7.36 14.53 8.15 14.53 9C14.53 11.3 12.66 13.17 10.36 13.17C9.51 13.17 8.72 12.91 8.06 12.48L6.48 14.05C7.67 14.53 8.98 14.83 10.36 14.83C12.9 14.83 15.23 13.81 16.93 12.5C17.77 11.85 18.44 11.15 18.89 10.5C19.36 9.83 19.53 9.31 19.53 9C19.53 8.69 19.36 8.16 18.89 7.49C18.44 6.84 17.77 6.14 16.93 5.49C16.58 5.22 16.2 4.97 15.81 4.73ZM10.75 4.85C10.62 4.83 10.49 4.83 10.36 4.83C8.06 4.83 6.19 6.69 6.19 9C6.19 9.13 6.2 9.26 6.21 9.39C6.23 9.61 6.49 9.69 6.65 9.53L7.99 8.18C8.24 7.46 8.82 6.88 9.54 6.63L10.89 5.28C11.05 5.13 10.97 4.87 10.75 4.85ZM9.28 11.25C9.61 11.41 9.97 11.5 10.36 11.5C11.74 11.5 12.86 10.38 12.86 9C12.86 8.61 12.77 8.25 12.62 7.92L9.28 11.25Z" fill="#C2C3CB" fill-opacity="1.000000" fill-rule="evenodd"/>
</svg>
