<svg width="20" height="22" viewBox="0 0 20 22" fill="none" xmlns="http://www.w3.org/2000/svg">
<path fill-rule="evenodd" clip-rule="evenodd" d="M0 5C0 4.44772 0.447715 4 1 4H19C19.5523 4 20 4.44772 20 5C20 5.55228 19.5523 6 19 6H1C0.447715 6 0 5.55228 0 5Z" fill="black"/>
<path fill-rule="evenodd" clip-rule="evenodd" d="M8 2C7.73478 2 7.48043 2.10536 7.29289 2.29289C7.10536 2.48043 7 2.73478 7 3V5C7 5.55228 6.55228 6 6 6C5.44772 6 5 5.55228 5 5V3C5 2.20435 5.31607 1.44129 5.87868 0.87868C6.44129 0.31607 7.20435 0 8 0H12C12.7956 0 13.5587 0.31607 14.1213 0.87868C14.6839 1.44129 15 2.20435 15 3V5C15 5.55228 14.5523 6 14 6C13.4477 6 13 5.55228 13 5V3C13 2.73478 12.8946 2.48043 12.7071 2.29289C12.5196 2.10536 12.2652 2 12 2H8Z" fill="black"/>
<path d="M18 19V6H14H6H2V19C2 19.7957 2.31607 20.5587 2.87868 21.1213C3.44129 21.6839 4.20435 22 5 22H15C15.7957 22 16.5587 21.6839 17.1213 21.1213C17.6839 20.5587 18 19.7957 18 19Z" fill="black"/>
</svg>
