<svg width="17" height="18" viewBox="0 0 17 18" fill="none" xmlns="http://www.w3.org/2000/svg">
<path d="M14.3108 10.7298C13.9398 10.3226 13.4922 10.1048 13.0179 10.1048C12.5474 10.1048 12.096 10.3185 11.7096 10.7258L10.5008 11.996C10.4014 11.9395 10.3019 11.8871 10.2063 11.8347C10.0686 11.7621 9.93853 11.6935 9.82759 11.621C8.69531 10.8629 7.66631 9.875 6.67938 8.59677C6.20122 7.95968 5.8799 7.42339 5.64656 6.87903C5.96023 6.57661 6.25095 6.2621 6.53402 5.95968C6.64113 5.84677 6.74824 5.72984 6.85535 5.61694C7.65866 4.77016 7.65866 3.67339 6.85535 2.82661L5.81105 1.72581C5.69246 1.60081 5.57005 1.47177 5.45529 1.34274C5.22578 1.09274 4.98478 0.834677 4.73614 0.592742C4.36509 0.205645 3.92135 0 3.45467 0C2.98799 0 2.5366 0.205645 2.15407 0.592742C2.15025 0.596774 2.15025 0.596774 2.14642 0.600806L0.845827 1.98387C0.356191 2.5 0.076945 3.12903 0.0157405 3.85887C-0.0760663 5.03629 0.252908 6.13306 0.505377 6.85081C1.12507 8.6129 2.05079 10.246 3.43172 11.996C5.10719 14.1048 7.12312 15.7702 9.42594 16.9435C10.3058 17.3831 11.4801 17.9032 12.7922 17.9919C12.8725 17.996 12.9567 18 13.0332 18C13.9168 18 14.6589 17.6653 15.2404 17C15.2442 16.9919 15.2518 16.9879 15.2557 16.9798C15.4546 16.7258 15.6841 16.496 15.9251 16.25C16.0896 16.0847 16.2579 15.9113 16.4224 15.7298C16.8011 15.3145 17 14.8306 17 14.3347C17 13.8347 16.7973 13.3548 16.4109 12.9516L14.3108 10.7298Z" fill="black"/>
</svg>
