<svg width="22.000000" height="18.000000" viewBox="0 0 22 18" fill="none" xmlns="http://www.w3.org/2000/svg" xmlns:xlink="http://www.w3.org/1999/xlink">
	<desc>
			Created with Pixso.
	</desc>
	<defs/>
	<path id="Icon" d="M16.43 -0.04C12.57 -0.38 8.69 -0.38 4.83 -0.04L2.97 0.12C1.63 0.23 0.5 1.09 0 2.28C-0.06 2.41 0 2.57 0.12 2.64L7.89 7.23C9.57 8.22 11.66 8.2 13.31 7.18L21.03 2.4C21.16 2.32 21.21 2.16 21.14 2.02C20.59 0.96 19.53 0.23 18.3 0.12L16.43 -0.04ZM-0.47 4.94C-0.45 4.72 -0.2 4.6 -0.01 4.71L6.95 8.83C9.22 10.16 12.05 10.14 14.29 8.75L21.24 4.45C21.43 4.33 21.68 4.45 21.7 4.67C22.05 7.86 21.98 11.08 21.51 14.25C21.26 15.88 19.93 17.13 18.3 17.27L16.43 17.43C12.57 17.77 8.69 17.77 4.83 17.43L2.97 17.27C1.33 17.13 0 15.88 -0.24 14.25C-0.71 11.17 -0.78 8.04 -0.47 4.94Z" fill="#6C5FBC" fill-opacity="1.000000" fill-rule="evenodd"/>
</svg>
