<svg width="20.000000" height="23.000000" viewBox="0 0 20 23" fill="none" xmlns="http://www.w3.org/2000/svg" xmlns:xlink="http://www.w3.org/1999/xlink">
	<desc>
			Created with Pixso.
	</desc>
	<defs/>
	<path id="Icon" d="M4.64 4.77C4.64 1.94 6.81 -0.35 9.5 -0.35C12.18 -0.35 14.36 1.94 14.36 4.77C14.36 7.61 12.18 9.9 9.5 9.9C6.81 9.9 4.64 7.61 4.64 4.77ZM-0.55 17.77C-0.55 14.93 1.63 12.64 4.31 12.64L4.75 12.64C4.99 12.64 5.23 12.68 5.46 12.76L6.58 13.14C8.47 13.79 10.52 13.79 12.41 13.14L13.53 12.76C13.76 12.68 14 12.64 14.24 12.64L14.68 12.64C17.36 12.64 19.54 14.93 19.54 17.77L19.54 19.39C19.54 20.42 18.83 21.3 17.87 21.46C12.32 22.42 6.67 22.42 1.12 21.46C0.16 21.3 -0.55 20.42 -0.55 19.39L-0.55 17.77Z" fill="#6C5FBC" fill-opacity="1.000000" fill-rule="evenodd"/>
</svg>
