<svg width="22" height="22" viewBox="0 0 22 22" fill="none" xmlns="http://www.w3.org/2000/svg">
<path fill-rule="evenodd" clip-rule="evenodd" d="M16.5349 0.291422C16.9994 0.099025 17.4972 0 18 0C18.5028 0 19.0006 0.099025 19.4651 0.291422C19.9296 0.483818 20.3516 0.765818 20.7071 1.12132C21.0626 1.47682 21.3446 1.89886 21.537 2.36335C21.7294 2.82784 21.8284 3.32567 21.8284 3.82843C21.8284 4.33118 21.7294 4.82901 21.537 5.2935C21.3446 5.75799 21.0626 6.18003 20.7071 6.53553L7.20711 20.0355C7.08405 20.1586 6.93101 20.2474 6.76312 20.2932L1.26312 21.7932C0.916906 21.8876 0.546644 21.7893 0.292893 21.5355C0.0391434 21.2818 -0.059185 20.9115 0.0352364 20.5653L1.53524 15.0653C1.58103 14.8974 1.66984 14.7444 1.79289 14.6213L15.2929 1.12132C15.6484 0.765818 16.0704 0.483818 16.5349 0.291422Z" fill="black"/>
</svg>
