<svg width="24" height="24" viewBox="0 0 24 24" fill="none" xmlns="http://www.w3.org/2000/svg">
<path fill-rule="evenodd" clip-rule="evenodd" d="M12.3158 2.04923C11.0969 1.56148 8.00015 1 8.00015 1C6.5003 1 3.60779 1.55882 3.41327 2.1851C3.21875 2.81139 3 15 3 15C3 15 4.29304 14.2929 5.00015 15C5.00015 15 6.5 14.5 8.5 15C10.5 15.5 12.5 17 16 17C19.5 17 20.5 15.5 20.5 15.5C20.5 15.5 21.5 2.5 20 2.5C20 2.5 18 3 16.5 3C15 3 12.6279 2.17407 12.3715 2.07152L12.3158 2.04923ZM19.0002 4.6032C18.2725 4.82731 17.2919 5 16.0002 5C14.3067 5 12.9035 4.43852 11.6845 3.95077L11.6288 3.92848C10.3607 3.42124 9.28084 3 8.00015 3C6.61287 3 5.74066 3.23083 5.24654 3.42848C5.15138 3.46654 5.06956 3.50364 5.00015 3.53805V13.3968C5.72775 13.1727 6.7084 13 8.00015 13C9.6936 13 11.0969 13.5615 12.3158 14.0492L12.3715 14.0715C13.6396 14.5788 14.7195 15 16.0002 15C17.3874 15 18.2596 14.7692 18.7538 14.5715C18.8489 14.5335 18.9307 14.4964 19.0002 14.4619V4.6032Z" fill="black"/>
<path fill-rule="evenodd" clip-rule="evenodd" d="M4 14C4.55228 14 5 14.4477 5 15V22C5 22.5523 4.55228 23 4 23C3.44772 23 3 22.5523 3 22V15C3 14.4477 3.44772 14 4 14Z" fill="black"/>
</svg>
