<svg width="24" height="21" viewBox="0 0 24 21" fill="none" xmlns="http://www.w3.org/2000/svg">
<path fill-rule="evenodd" clip-rule="evenodd" d="M14.2119 0.74325C15.0007 0.416403 15.8462 0.248175 16.7 0.248175C17.5538 0.248175 18.3993 0.416403 19.1881 0.74325C19.9768 1.07004 20.6934 1.54898 21.2969 2.15273C21.9007 2.75628 22.38 3.47318 22.7067 4.26185C23.0336 5.05067 23.2018 5.89615 23.2018 6.75C23.2018 7.60385 23.0336 8.44933 22.7067 9.23815C22.3799 10.0269 21.9009 10.7435 21.2971 11.3471C21.2971 11.3472 21.2972 11.3471 21.2971 11.3471L12.4571 20.1871C12.0666 20.5776 11.4334 20.5776 11.0429 20.1871L2.20289 11.3471C0.983665 10.1279 0.29871 8.47425 0.29871 6.75C0.29871 5.02575 0.983665 3.37212 2.20289 2.15289C3.42212 0.933665 5.07575 0.248709 6.8 0.248709C8.52425 0.248709 10.1779 0.933665 11.3971 2.15289L11.75 2.50579L12.1027 2.15306C12.1028 2.153 12.1027 2.15311 12.1027 2.15306C12.7063 1.54923 13.4231 1.07007 14.2119 0.74325ZM16.7 2.24817C16.1089 2.24817 15.5235 2.36464 14.9774 2.59092C14.4313 2.8172 13.9352 3.14885 13.5173 3.56694L12.4571 4.62711C12.0666 5.01763 11.4334 5.01763 11.0429 4.62711L9.98289 3.56711C9.13874 2.72295 7.99382 2.24871 6.8 2.24871C5.60618 2.24871 4.46126 2.72295 3.61711 3.56711C2.77295 4.41126 2.29871 5.55618 2.29871 6.75C2.29871 7.94382 2.77295 9.08874 3.61711 9.93289L11.75 18.0658L19.8829 9.93289C20.301 9.515 20.6328 9.01867 20.8591 8.47256C21.0854 7.92646 21.2018 7.34113 21.2018 6.75C21.2018 6.15887 21.0854 5.57354 20.8591 5.02744C20.6328 4.48133 20.3011 3.98516 19.8831 3.56727C19.4652 3.14919 18.9687 2.8172 18.4226 2.59092C17.8765 2.36464 17.2911 2.24817 16.7 2.24817Z" fill="black"/>
</svg>
