<svg width="22.000000" height="18.000000" viewBox="0 0 22 18" fill="none" xmlns="http://www.w3.org/2000/svg" xmlns:xlink="http://www.w3.org/1999/xlink">
	<desc>
			Created with Pixso.
	</desc>
	<defs/>
	<path id="Icon" d="M-0.64 5.66C-0.64 2.27 2.33 -0.34 5.82 -0.34C7.62 -0.34 9.2 0.51 10.33 1.6C11.47 0.51 13.05 -0.34 14.85 -0.34C18.34 -0.34 21.31 2.27 21.31 5.66C21.31 7.98 20.32 10.02 18.95 11.74C17.58 13.47 15.79 14.93 14.08 16.11C13.42 16.57 12.76 16.99 12.15 17.3C11.58 17.59 10.93 17.85 10.33 17.85C9.74 17.85 9.08 17.59 8.52 17.3C7.91 16.99 7.25 16.57 6.59 16.11C4.88 14.93 3.09 13.47 1.72 11.74C0.35 10.02 -0.64 7.98 -0.64 5.66ZM5.82 1.54C3.21 1.54 1.24 3.46 1.24 5.66C1.24 7.42 1.99 9.06 3.19 10.57C4.4 12.09 6.02 13.43 7.66 14.57C8.28 15 8.87 15.36 9.37 15.62C9.91 15.89 10.22 15.97 10.33 15.97C10.45 15.97 10.76 15.89 11.3 15.62C11.8 15.36 12.38 15 13 14.57C14.65 13.43 16.27 12.09 17.48 10.57C18.68 9.06 19.43 7.42 19.43 5.66C19.43 3.46 17.46 1.54 14.85 1.54C13.35 1.54 11.95 2.44 11.08 3.57C10.9 3.81 10.63 3.94 10.33 3.94C10.04 3.94 9.77 3.81 9.59 3.57C8.71 2.44 7.32 1.54 5.82 1.54Z" fill="v.$bg-color-secondary" fill-opacity="1.000000" fill-rule="evenodd"/>
</svg>
