<svg width="21.000000" height="22.000000" viewBox="0 0 21 22" fill="none" xmlns="http://www.w3.org/2000/svg" xmlns:xlink="http://www.w3.org/1999/xlink">
	<desc>
			Created with Pixso.
	</desc>
	<defs/>
	<path id="Path 8" d="M9.77 0C11.19 0.05 12.66 0.05 14.08 0.1C15.34 0.15 16.51 0.35 17.63 1.01C19.05 1.87 19.91 3.14 20.21 4.76C20.36 5.72 20.41 6.74 20.46 7.7C20.5 9.12 20.49 10.54 20.48 11.96C20.47 12.67 20.46 13.38 20.46 14.09C20.46 15.2 20.41 16.32 20.06 17.38C19.35 19.46 17.88 20.73 15.75 21.13C14.79 21.34 13.77 21.34 12.81 21.39C11.39 21.42 10 21.41 8.59 21.4C7.89 21.39 7.18 21.39 6.47 21.39C5.36 21.39 4.24 21.34 3.18 20.98C1.1 20.27 -0.17 18.8 -0.57 16.67C-0.78 15.71 -0.78 14.7 -0.83 13.73C-0.86 12.31 -0.85 10.89 -0.84 9.47C-0.83 8.77 -0.83 8.06 -0.83 7.35C-0.83 6.23 -0.78 5.12 -0.42 4.05C0.29 1.97 1.76 0.7 3.89 0.3C4.85 0.1 5.86 0.1 6.83 0.05C7.79 0 8.75 0 9.77 0ZM18.49 7.95C18.49 8.82 18.49 9.63 18.54 10.49C18.49 12.16 18.49 13.78 18.39 15.31C18.34 16.52 17.98 17.59 16.97 18.4C16.36 18.9 15.65 19.16 14.89 19.21C14.08 19.31 13.27 19.36 12.46 19.36C11.84 19.36 11.24 19.37 10.63 19.37C9.44 19.38 8.26 19.39 7.08 19.36C6.12 19.36 5.16 19.31 4.24 19.16C2.42 18.85 1.3 17.59 1.15 15.76C1.05 14.54 1 13.28 1 12.06C1 10.13 1 8.21 1.05 6.28C1.1 5.77 1.15 5.27 1.3 4.76C1.76 3.24 2.82 2.38 4.34 2.12C5.21 1.97 6.12 1.92 7.03 1.92C8.86 1.87 10.63 1.87 12.46 1.92C13.37 1.92 14.38 1.92 15.29 2.12C17.07 2.48 18.13 3.7 18.34 5.52C18.44 6.33 18.49 7.14 18.49 7.95Z" fill="#081420" fill-opacity="1.000000" fill-rule="evenodd"/>
	<path id="Path 8 (Border)" d="M14.08 0.1C12.66 0.05 11.19 0.05 9.77 0C8.75 0 7.79 0 6.83 0.05C5.86 0.1 4.85 0.1 3.89 0.3C1.76 0.7 0.29 1.97 -0.42 4.05C-0.78 5.12 -0.83 6.23 -0.83 7.35C-0.83 8.06 -0.83 8.77 -0.84 9.47C-0.85 10.89 -0.86 12.31 -0.83 13.73C-0.78 14.7 -0.78 15.71 -0.57 16.67C-0.17 18.8 1.1 20.27 3.18 20.98C4.24 21.34 5.36 21.39 6.47 21.39C7.18 21.39 7.89 21.39 8.59 21.4C10 21.41 11.39 21.42 12.81 21.39C13.77 21.34 14.79 21.34 15.75 21.13C17.88 20.73 19.35 19.46 20.06 17.38C20.41 16.32 20.46 15.2 20.46 14.09C20.46 13.38 20.47 12.67 20.48 11.96C20.49 10.54 20.5 9.12 20.46 7.7C20.41 6.74 20.36 5.72 20.21 4.76C19.91 3.14 19.05 1.87 17.63 1.01C16.51 0.35 15.34 0.15 14.08 0.1ZM18.54 10.49C18.49 9.63 18.49 8.82 18.49 7.95C18.49 7.14 18.44 6.33 18.34 5.52C18.13 3.7 17.07 2.48 15.29 2.12C14.38 1.92 13.37 1.92 12.46 1.92C10.63 1.87 8.86 1.87 7.03 1.92C6.12 1.92 5.21 1.97 4.34 2.12C2.82 2.38 1.76 3.24 1.3 4.76C1.15 5.27 1.1 5.77 1.05 6.28C1 8.21 1 10.13 1 12.06C1 13.28 1.05 14.54 1.15 15.76C1.3 17.59 2.42 18.85 4.24 19.16C5.16 19.31 6.12 19.36 7.08 19.36C8.26 19.39 9.44 19.38 10.63 19.37C11.24 19.37 11.84 19.36 12.46 19.36C13.27 19.36 14.08 19.31 14.89 19.21C15.65 19.16 16.36 18.9 16.97 18.4C17.98 17.59 18.34 16.52 18.39 15.31C18.49 13.78 18.49 12.16 18.54 10.49Z" fill="#707070" fill-opacity="0" fill-rule="evenodd"/>
	<path id="Path 9" d="M9.77 16.17C12.81 16.17 15.24 13.73 15.24 10.69C15.24 7.65 12.81 5.22 9.82 5.22C6.78 5.22 4.29 7.65 4.29 10.64C4.29 13.73 6.73 16.17 9.77 16.17ZM13.32 10.69C13.32 12.62 11.69 14.24 9.77 14.24C7.79 14.24 6.17 12.62 6.22 10.69C6.22 8.76 7.79 7.14 9.77 7.14C11.69 7.14 13.32 8.76 13.32 10.69Z" fill="#081420" fill-opacity="1.000000" fill-rule="evenodd"/>
	<path id="Path 9 (Border)" d="M15.24 10.69C15.24 13.73 12.81 16.17 9.77 16.17C6.73 16.17 4.29 13.73 4.29 10.64C4.29 7.65 6.78 5.22 9.82 5.22C12.81 5.22 15.24 7.65 15.24 10.69ZM9.77 14.24C11.69 14.24 13.32 12.62 13.32 10.69C13.32 8.76 11.69 7.14 9.77 7.14C7.79 7.14 6.22 8.76 6.22 10.69C6.17 12.62 7.79 14.24 9.77 14.24Z" fill="#707070" fill-opacity="0" fill-rule="evenodd"/>
	<path id="Path 10" d="M16.71 4.96C16.71 5.67 16.16 6.28 15.45 6.28C14.74 6.28 14.13 5.67 14.18 4.96C14.18 4.25 14.74 3.7 15.45 3.7C16.16 3.7 16.71 4.25 16.71 4.96Z" fill="#081420" fill-opacity="1.000000" fill-rule="nonzero"/>
</svg>
