<svg width="21.000000" height="20.000000" viewBox="0 0 21 20" fill="none" xmlns="http://www.w3.org/2000/svg" xmlns:xlink="http://www.w3.org/1999/xlink">
	<desc>
			Created with Pixso.
	</desc>
	<defs/>
	<path id="linkedin" d="M-0.71 1.35C-0.71 0.03 0.33 -1 1.88 -1C3.43 -1 4.41 0.03 4.47 1.35C4.47 2.68 3.49 3.71 1.88 3.71C0.33 3.71 -0.71 2.68 -0.71 1.35ZM20.63 11.48L20.63 19.36L16.03 19.36L16.03 11.99C16.03 10.15 15.39 8.89 13.73 8.89C12.46 8.89 11.71 9.75 11.37 10.56C11.25 10.84 11.2 11.25 11.2 11.65L11.2 19.36L6.59 19.36C6.59 19.36 6.65 6.87 6.59 5.61L11.2 5.61L11.2 7.57C11.83 6.64 12.86 5.27 15.34 5.27C18.33 5.27 20.63 7.28 20.63 11.48ZM-0.48 19.36L4.06 19.36L4.06 5.61L-0.48 5.61L-0.48 19.36Z" fill="#081420" fill-opacity="1.000000" fill-rule="evenodd"/>
</svg>
