<svg width="20" height="24" viewBox="0 0 20 24" fill="none" xmlns="http://www.w3.org/2000/svg">
<path d="M6.20225 9.96244C6.20225 7.91396 7.86287 6.25334 9.91135 6.25334C11.9598 6.25334 13.6204 7.91396 13.6204 9.96244C13.6204 12.0109 11.9598 13.6715 9.91135 13.6715C7.86287 13.6715 6.20225 12.0109 6.20225 9.96244Z" fill="#6C5FBC"/>
<path fill-rule="evenodd" clip-rule="evenodd" d="M0.522813 8.68124C0.914995 3.92339 4.89091 0.261719 9.6649 0.261719H10.1579C14.9318 0.261719 18.9078 3.92339 19.2999 8.68124C19.5111 11.2429 18.7198 13.7866 17.0928 15.7764L11.6226 22.4662C10.7382 23.5479 9.08457 23.5479 8.20012 22.4662L2.72999 15.7764C1.10294 13.7866 0.311659 11.2429 0.522813 8.68124ZM9.91135 4.54145C6.91742 4.54145 4.49036 6.96851 4.49036 9.96244C4.49036 12.9564 6.91742 15.3834 9.91135 15.3834C12.9053 15.3834 15.3323 12.9564 15.3323 9.96244C15.3323 6.96851 12.9053 4.54145 9.91135 4.54145Z" fill="#6C5FBC"/>
</svg>
