<svg width="25" height="25" viewBox="0 0 25 25" fill="none" xmlns="http://www.w3.org/2000/svg">
<path fill-rule="evenodd" clip-rule="evenodd" d="M5.47244 12.7132C4.92016 12.7132 4.47244 13.1609 4.47244 13.7132V20.7132C4.47244 21.2654 4.92016 21.7132 5.47244 21.7132H19.4724C20.0247 21.7132 20.4724 21.2654 20.4724 20.7132V13.7132C20.4724 13.1609 20.0247 12.7132 19.4724 12.7132H5.47244ZM2.47244 13.7132C2.47244 12.0563 3.81559 10.7132 5.47244 10.7132H19.4724C21.1293 10.7132 22.4724 12.0563 22.4724 13.7132V20.7132C22.4724 22.37 21.1293 23.7132 19.4724 23.7132H5.47244C3.81559 23.7132 2.47244 22.37 2.47244 20.7132V13.7132Z" fill="black"/>
<path fill-rule="evenodd" clip-rule="evenodd" d="M12.4724 3.71315C11.4116 3.71315 10.3942 4.13458 9.64402 4.88472C8.89387 5.63487 8.47244 6.65228 8.47244 7.71315V11.7132C8.47244 12.2654 8.02473 12.7132 7.47244 12.7132C6.92016 12.7132 6.47244 12.2654 6.47244 11.7132V7.71315C6.47244 6.12185 7.10458 4.59573 8.2298 3.47051C9.35502 2.34529 10.8811 1.71315 12.4724 1.71315C14.0637 1.71315 15.5899 2.34529 16.7151 3.47051C17.8403 4.59573 18.4724 6.12185 18.4724 7.71315V11.7132C18.4724 12.2654 18.0247 12.7132 17.4724 12.7132C16.9202 12.7132 16.4724 12.2654 16.4724 11.7132V7.71315C16.4724 6.65228 16.051 5.63487 15.3009 4.88472C14.5507 4.13458 13.5333 3.71315 12.4724 3.71315Z" fill="black"/>
</svg>
