<svg width="17" height="18" viewBox="0 0 17 18" fill="none" xmlns="http://www.w3.org/2000/svg">
<path d="M14.3108 10.7298C13.9398 10.3226 13.4922 10.1048 13.0179 10.1048C12.5474 10.1048 12.096 10.3185 11.7096 10.7258L10.5008 11.996C10.4014 11.9395 10.3019 11.8871 10.2063 11.8347C10.0686 11.7621 9.93853 11.6935 9.82759 11.621C8.69531 10.8629 7.66631 9.875 6.67938 8.59677C6.20122 7.95968 5.8799 7.42339 5.64656 6.87903C5.96023 6.57661 6.25095 6.2621 6.53402 5.95968C6.64113 5.84677 6.74824 5.72984 6.85535 5.61694C7.65866 4.77016 7.65866 3.67339 6.85535 2.82661L5.81104 1.72581C5.69246 1.60081 5.57005 1.47177 5.45529 1.34274C5.22578 1.09274 4.98478 0.834677 4.73614 0.592742C4.36509 0.205645 3.92135 0 3.45467 0C2.98799 0 2.5366 0.205645 2.15407 0.592742C2.15025 0.596774 2.15025 0.596774 2.14642 0.600806L0.845827 1.98387C0.356191 2.5 0.076945 3.12903 0.0157405 3.85887C-0.0760663 5.03629 0.252908 6.13306 0.505377 6.85081C1.12507 8.6129 2.05079 10.246 3.43172 11.996C5.10719 14.1048 7.12312 15.7702 9.42594 16.9435C10.3058 17.3831 11.4801 17.9032 12.7922 17.9919C12.8725 17.996 12.9567 18 13.0332 18C13.9168 18 14.6589 17.6653 15.2404 17C15.2442 16.9919 15.2518 16.9879 15.2557 16.9798C15.4546 16.7258 15.6841 16.496 15.9251 16.25C16.0896 16.0847 16.2579 15.9113 16.4224 15.7298C16.8011 15.3145 17 14.8306 17 14.3347C17 13.8347 16.7973 13.3548 16.4109 12.9516L14.3108 10.7298ZM15.6803 14.9758C15.6765 14.9798 15.6765 14.9758 15.6803 14.9758C15.5311 15.1452 15.3781 15.2984 15.2136 15.4677C14.9649 15.7177 14.7125 15.9798 14.4753 16.2742C14.089 16.7097 13.6337 16.9153 13.037 16.9153C12.9796 16.9153 12.9184 16.9153 12.861 16.9113C11.7249 16.8347 10.6692 16.3669 9.87732 15.9677C7.71221 14.8629 5.81105 13.2944 4.2312 11.3065C2.92678 9.64919 2.05462 8.11694 1.477 6.47177C1.12125 5.46774 0.991188 4.68548 1.04857 3.94758C1.08682 3.47581 1.25896 3.08468 1.57646 2.75L2.88088 1.375C3.06832 1.18952 3.26723 1.08871 3.46232 1.08871C3.70331 1.08871 3.8984 1.24194 4.02081 1.37097C4.02464 1.375 4.02846 1.37903 4.03229 1.38306C4.26563 1.6129 4.4875 1.85081 4.72084 2.10484C4.83942 2.23387 4.96183 2.3629 5.08424 2.49597L6.12854 3.59677C6.53402 4.02419 6.53402 4.41936 6.12854 4.84677C6.01761 4.96371 5.9105 5.08064 5.79957 5.19355C5.47825 5.54032 5.17222 5.8629 4.83942 6.17742C4.83177 6.18548 4.82412 6.18952 4.8203 6.19758C4.49132 6.54436 4.55253 6.88306 4.62138 7.1129C4.62521 7.125 4.62903 7.1371 4.63286 7.14919C4.90445 7.84274 5.28698 8.49597 5.86842 9.27419L5.87225 9.27823C6.92803 10.6492 8.04119 11.7177 9.2691 12.5363C9.42594 12.6411 9.5866 12.7258 9.73961 12.8065C9.87732 12.879 10.0074 12.9476 10.1183 13.0202C10.1336 13.0282 10.1489 13.0403 10.1642 13.0484C10.2943 13.1169 10.4167 13.1492 10.5429 13.1492C10.8604 13.1492 11.0593 12.9395 11.1244 12.871L12.4326 11.4919C12.5627 11.3548 12.7692 11.1895 13.0102 11.1895C13.2474 11.1895 13.4425 11.3468 13.5611 11.4839C13.5649 11.4879 13.5649 11.4879 13.5687 11.4919L15.6765 13.7137C16.0705 14.125 16.0705 14.5484 15.6803 14.9758Z" fill="black"/>
</svg>
