<svg width="18.000000" height="18.000000" viewBox="0 0 18 18" fill="none" xmlns="http://www.w3.org/2000/svg" xmlns:xlink="http://www.w3.org/1999/xlink">
	<desc>
			Created with Pixso.
	</desc>
	<defs/>
	<path id="Icon (Border)" d="M11.92 4.96L10.78 1.43C10.69 1.17 10.57 0.95 10.41 0.75C10.29 0.6 10.15 0.47 9.98 0.35C9.82 0.25 9.65 0.16 9.47 0.1C9.26 0.03 9.04 0 8.8 0C8.57 0 8.34 0.03 8.13 0.1C7.96 0.16 7.79 0.25 7.63 0.35C7.46 0.47 7.32 0.6 7.19 0.75C7.04 0.95 6.91 1.17 6.83 1.43L5.68 4.96L1.9 5.01C1.63 5.01 1.38 5.06 1.14 5.15C0.96 5.22 0.79 5.31 0.63 5.44C0.48 5.56 0.35 5.69 0.24 5.84C0.1 6.02 0 6.22 -0.07 6.44C-0.14 6.67 -0.18 6.89 -0.18 7.11C-0.18 7.3 -0.15 7.49 -0.09 7.67C-0.04 7.87 0.04 8.04 0.15 8.21C0.29 8.42 0.46 8.6 0.68 8.76L3.69 10.94L2.57 14.56C2.48 14.82 2.45 15.07 2.46 15.32C2.47 15.51 2.51 15.71 2.58 15.9C2.64 16.08 2.73 16.24 2.84 16.4C2.97 16.58 3.13 16.74 3.32 16.88C3.51 17.02 3.71 17.12 3.92 17.18C4.1 17.24 4.29 17.27 4.48 17.28C4.68 17.28 4.88 17.26 5.06 17.21C5.31 17.15 5.54 17.04 5.75 16.88L8.76 14.69L11.85 16.88C12.07 17.04 12.3 17.15 12.54 17.21C12.73 17.26 12.92 17.28 13.13 17.28C13.32 17.27 13.51 17.24 13.68 17.18C13.9 17.12 14.1 17.02 14.29 16.88C14.48 16.74 14.64 16.58 14.77 16.4C14.88 16.24 14.96 16.08 15.03 15.9C15.1 15.71 15.14 15.51 15.15 15.32C15.16 15.07 15.12 14.82 15.04 14.56L13.89 11.03L16.93 8.76C17.14 8.6 17.32 8.42 17.46 8.21C17.56 8.04 17.64 7.87 17.7 7.67C17.75 7.49 17.78 7.3 17.78 7.11C17.79 6.89 17.75 6.67 17.68 6.44C17.61 6.22 17.5 6.02 17.37 5.84C17.26 5.69 17.13 5.56 16.97 5.44C16.81 5.31 16.64 5.22 16.46 5.15C16.23 5.06 15.98 5.01 15.71 5.01L11.92 4.96ZM8.85 2.01L10.02 5.58C10.06 5.69 10.1 5.79 10.15 5.89C10.2 5.99 10.26 6.08 10.32 6.16C10.38 6.25 10.45 6.33 10.52 6.4C10.6 6.48 10.68 6.55 10.77 6.62C10.86 6.68 10.96 6.74 11.05 6.79C11.15 6.83 11.24 6.87 11.34 6.91C11.45 6.94 11.55 6.97 11.65 6.98C11.76 7 11.88 7.01 11.99 7.01L15.71 7.01C15.7 7.02 15.77 7.13 15.75 7.14L12.75 9.33C12.65 9.39 12.57 9.47 12.49 9.55C12.41 9.62 12.34 9.7 12.28 9.79C12.22 9.88 12.16 9.97 12.12 10.06C12.07 10.16 12.03 10.26 11.99 10.36C11.96 10.47 11.93 10.57 11.91 10.68C11.9 10.79 11.89 10.89 11.89 11C11.89 11.1 11.9 11.21 11.91 11.31C11.93 11.42 11.96 11.54 11.99 11.64L13.14 15.18C13.12 15.19 13.08 15.28 13.07 15.28L10.02 13.08C9.93 13.01 9.83 12.95 9.73 12.9C9.64 12.85 9.54 12.81 9.44 12.78C9.34 12.75 9.23 12.72 9.13 12.71C9.02 12.69 8.91 12.68 8.8 12.68C8.69 12.68 8.58 12.69 8.48 12.71C8.37 12.72 8.27 12.75 8.17 12.78C8.07 12.81 7.97 12.85 7.88 12.9C7.78 12.95 7.68 13.01 7.58 13.08L4.58 15.26C4.56 15.25 4.47 15.23 4.46 15.22L5.62 11.64C5.65 11.54 5.68 11.42 5.69 11.31C5.71 11.21 5.72 11.1 5.72 11C5.72 10.89 5.71 10.79 5.69 10.68C5.67 10.57 5.65 10.47 5.62 10.36C5.58 10.26 5.54 10.16 5.49 10.06C5.44 9.97 5.39 9.88 5.33 9.79C5.26 9.7 5.19 9.62 5.12 9.55C5.04 9.47 4.95 9.39 4.86 9.33L1.86 7.14C1.86 7.12 1.84 7.03 1.86 7.02L5.61 7.01C5.73 7.01 5.84 7 5.95 6.98C6.06 6.97 6.16 6.94 6.26 6.91C6.36 6.87 6.46 6.83 6.55 6.79C6.65 6.74 6.74 6.68 6.83 6.62C6.92 6.55 7 6.48 7.08 6.4C7.16 6.33 7.22 6.25 7.29 6.16C7.35 6.08 7.41 5.99 7.45 5.89C7.51 5.79 7.55 5.69 7.59 5.58L8.73 2.05C8.74 2.03 8.84 2.01 8.85 2.01Z" fill="#F6B03B" fill-opacity="1.000000" fill-rule="evenodd"/>
</svg>
