<svg width="169.000000" height="60.000000" viewBox="0 0 169 60" fill="none" xmlns="http://www.w3.org/2000/svg" xmlns:xlink="http://www.w3.org/1999/xlink">
	<desc>
			Created with Pixso.
	</desc>
	<defs/>
	<path id="Vector 14 (Border)" d="M165.99 4.32C166.22 3.61 166.95 3.24 167.66 3.47C168.36 3.7 168.73 4.44 168.51 5.14C166.91 10.04 164.31 15.09 160.7 20.29C154.77 28.84 147.84 34.45 139.93 37.1C138.14 37.7 136.3 38.15 134.41 38.44C128.62 39.36 123.06 39.22 117.73 38.04C115.94 37.64 114.17 37.12 112.43 36.48C110.35 38.34 108.14 39.99 105.79 41.41C100.01 44.91 93.41 47.07 86.01 47.88C79.08 48.65 72.71 47.95 66.87 45.78C66.57 45.67 66.27 45.56 65.98 45.44C65.07 46.38 64.09 47.32 63.03 48.23C61.86 49.24 60.65 50.19 59.39 51.08C56.02 53.48 52.34 55.43 48.35 56.95C42.74 59.09 37.53 59.97 32.72 59.58C26.35 59.08 19.04 55.58 10.79 49.09C8.52 47.31 6.44 45.54 4.55 43.79L6.86 50.38C7.11 51.08 6.75 51.83 6.05 52.07C5.35 52.32 4.61 51.96 4.36 51.26L-0.68 36.88L13.57 40.2C14.29 40.36 14.73 41.06 14.56 41.79C14.39 42.51 13.69 42.94 12.97 42.78L5.5 41.04C7.55 43 9.86 45 12.42 47.01C20.26 53.17 27.09 56.48 32.93 56.94C37.34 57.29 42.17 56.47 47.41 54.48C51.26 53.01 54.79 51.12 58.03 48.8C59.15 48 60.24 47.14 61.29 46.23C62.04 45.58 62.74 44.94 63.41 44.29C62.77 43.98 62.14 43.65 61.52 43.3C56.63 40.55 53.13 37.1 51.05 32.94C49.71 30.27 48.95 27.32 48.76 24.07C48.59 21.06 49.18 18.56 50.52 16.58C52.08 14.27 54.67 12.66 58.27 11.75C60.24 11.25 62.07 11.24 63.76 11.73C67.06 12.68 69.82 15.52 72.04 20.26C73.03 22.37 73.61 24.51 73.8 26.69C74.05 29.53 73.62 32.42 72.52 35.37C71.49 38.13 69.93 40.78 67.85 43.32C73.29 45.32 79.24 45.97 85.72 45.25C92.83 44.46 99.15 42.38 104.67 38.99C106.42 37.91 108.09 36.7 109.68 35.36C108.83 34.98 107.99 34.58 107.15 34.14C100.66 30.74 96.51 26.51 94.68 21.44C93.98 19.5 93.62 17.43 93.6 15.25C93.6 15.12 93.6 15 93.6 14.88C93.66 11.85 94.68 8.84 96.68 5.85C98.37 3.32 100.38 1.57 102.72 0.58C103.93 0.08 105.22 -0.23 106.6 -0.32C108.59 -0.46 110.4 -0.19 112.05 0.5C115.66 2 118.46 5.48 120.43 10.93C121.67 14.36 122.08 17.68 121.68 20.9C121.08 25.63 118.72 30.13 114.58 34.42C115.76 34.81 116.96 35.14 118.16 35.41C123.21 36.56 128.49 36.69 134 35.83C135.57 35.58 137.1 35.22 138.59 34.74C146.16 32.34 152.81 27.02 158.53 18.77C161.98 13.79 164.47 8.97 165.99 4.32ZM111.84 33.41C116.13 29.24 118.53 24.86 119.05 20.28C119.35 17.54 118.98 14.72 117.94 11.83C116.19 6.99 113.75 3.99 110.64 2.84C109.45 2.4 108.17 2.23 106.79 2.32C105.82 2.39 104.9 2.59 104.04 2.92C102.05 3.69 100.33 5.15 98.89 7.32C97.11 9.98 96.23 12.62 96.25 15.22C96.27 16.93 96.53 18.56 97.04 20.11C98.58 24.74 102.36 28.64 108.38 31.79C109.52 32.39 110.68 32.93 111.84 33.41ZM65.34 42.28C69.29 37.84 71.3 33.37 71.35 28.89C71.38 26.39 70.81 23.89 69.64 21.38C67.72 17.29 65.39 14.91 62.64 14.24C61.48 13.96 60.24 13.98 58.92 14.32C56.02 15.05 53.96 16.35 52.73 18.19C51.72 19.72 51.28 21.63 51.41 23.92C51.57 26.69 52.21 29.22 53.33 31.52C55.18 35.32 58.34 38.48 62.82 40.99C63.64 41.46 64.48 41.88 65.34 42.28Z" fill="#6C5FBC" fill-opacity="1.000000" fill-rule="evenodd"/>
</svg>
