<svg width="25" height="25" viewBox="0 0 25 25" fill="none" xmlns="http://www.w3.org/2000/svg">
<path fill-rule="evenodd" clip-rule="evenodd" d="M2.76562 6.64062C2.76562 6.08834 3.21334 5.64062 3.76562 5.64062H21.7656C22.3179 5.64062 22.7656 6.08834 22.7656 6.64062C22.7656 7.19291 22.3179 7.64062 21.7656 7.64062H3.76562C3.21334 7.64062 2.76562 7.19291 2.76562 6.64062Z" fill="black"/>
<path fill-rule="evenodd" clip-rule="evenodd" d="M10.7656 3.64062C10.5004 3.64062 10.2461 3.74598 10.0585 3.93352C9.87098 4.12105 9.76562 4.37541 9.76562 4.64062V6.64062C9.76562 7.19291 9.31791 7.64062 8.76562 7.64062C8.21334 7.64062 7.76562 7.19291 7.76562 6.64062V4.64062C7.76562 3.84498 8.0817 3.08191 8.6443 2.5193C9.20691 1.9567 9.96998 1.64062 10.7656 1.64062H14.7656C15.5613 1.64062 16.3243 1.9567 16.8869 2.5193C17.4496 3.08191 17.7656 3.84498 17.7656 4.64062V6.64062C17.7656 7.19291 17.3179 7.64062 16.7656 7.64062C16.2133 7.64062 15.7656 7.19291 15.7656 6.64062V4.64062C15.7656 4.37541 15.6603 4.12105 15.4727 3.93352C15.2852 3.74598 15.0308 3.64062 14.7656 3.64062H10.7656ZM5.76562 5.64062C6.31791 5.64062 6.76562 6.08834 6.76562 6.64062V20.6406C6.76562 20.9058 6.87098 21.1602 7.05852 21.3477C7.24605 21.5353 7.50041 21.6406 7.76562 21.6406H17.7656C18.0308 21.6406 18.2852 21.5353 18.4727 21.3477C18.6603 21.1602 18.7656 20.9058 18.7656 20.6406V6.64062C18.7656 6.08834 19.2133 5.64062 19.7656 5.64062C20.3179 5.64062 20.7656 6.08834 20.7656 6.64062V20.6406C20.7656 21.4363 20.4496 22.1993 19.8869 22.7619C19.3243 23.3246 18.5613 23.6406 17.7656 23.6406H7.76562C6.96998 23.6406 6.20691 23.3246 5.6443 22.7619C5.0817 22.1993 4.76562 21.4363 4.76562 20.6406V6.64062C4.76562 6.08834 5.21334 5.64062 5.76562 5.64062Z" fill="black"/>
</svg>
