<svg width="21.000000" height="18.000000" viewBox="0 0 21 18" fill="none" xmlns="http://www.w3.org/2000/svg" xmlns:xlink="http://www.w3.org/1999/xlink">
	<desc>
			Created with Pixso.
	</desc>
	<defs/>
	<path id="Path 6" d="M20.61 1.82C19.81 2.17 19 2.42 18.1 2.52C19 1.97 19.71 1.12 20.01 0.11C19.15 0.62 18.2 0.97 17.25 1.17C16.44 0.32 15.29 -0.24 14.03 -0.24C11.62 -0.24 9.67 1.72 9.67 4.13C9.67 4.48 9.72 4.83 9.77 5.14C6.1 4.93 2.89 3.23 0.73 0.57C0.33 1.22 0.13 1.97 0.13 2.78C0.13 4.28 0.88 5.64 2.08 6.44C1.38 6.44 0.68 6.24 0.08 5.89C0.08 8 1.58 9.85 3.59 10.26C3.24 10.36 2.84 10.41 2.44 10.41C2.13 10.41 1.88 10.36 1.63 10.31C2.19 12.06 3.79 13.32 5.75 13.37C4.24 14.52 2.39 15.23 0.33 15.23C-0.02 15.23 -0.38 15.23 -0.73 15.18C1.23 16.43 3.49 17.13 6 17.13C14.08 17.13 18.45 10.46 18.45 4.68L18.45 4.13C19.31 3.48 20.06 2.67 20.61 1.82Z" fill="#6C5FBC" fill-opacity="1.000000" fill-rule="evenodd"/>
</svg>
