<svg width="41.000000" height="36.000000" viewBox="0 0 41 36" fill="none" xmlns="http://www.w3.org/2000/svg" xmlns:xlink="http://www.w3.org/1999/xlink">
	<desc>
			Created with Pixso.
	</desc>
	<defs/>
	<path id="Vector (Border)" d="M27.12 29.57C27.92 27.79 28.76 25.76 29.63 23.49C30.16 22.12 30.93 20.06 31.94 17.3C32.55 15.65 33 14.41 33.31 13.58C33.83 12.21 34.3 10.97 34.73 9.87C35.01 9.18 35.76 8.85 36.45 9.12C37.14 9.4 37.47 10.15 37.2 10.84C36.77 11.93 36.3 13.15 35.79 14.51C35.49 15.33 35.04 16.56 34.43 18.21C33.42 20.98 32.64 23.06 32.11 24.45C31.21 26.76 30.36 28.83 29.54 30.66C29.24 31.33 28.47 31.63 27.79 31.32C27.11 31.02 26.82 30.25 27.12 29.57Z" fill="#685BB8" fill-opacity="1.000000" fill-rule="evenodd"/>
	<path id="Vector (Border)" d="M7.96 33.09C14.76 25.81 21.9 16.71 29.36 5.8C29.78 5.19 30.59 5.04 31.21 5.46C31.82 5.88 31.97 6.69 31.55 7.3C24.01 18.32 16.79 27.52 9.89 34.9C9.39 35.44 8.56 35.47 8.02 34.96C7.48 34.46 7.45 33.63 7.96 33.09Z" fill="#685BB8" fill-opacity="1.000000" fill-rule="evenodd"/>
	<path id="Vector (Border)" d="M2.2 13.58C3.57 13.11 5.07 12.47 6.72 11.66C8.19 10.93 9.8 10.05 11.56 9.01C13.01 8.16 14.65 7.14 16.47 5.97C17.56 5.27 19.15 4.22 21.24 2.84C23.3 1.47 24.81 0.48 25.75 -0.12C26.38 -0.52 27.18 -0.34 27.58 0.28C27.98 0.91 27.81 1.71 27.18 2.11C26.25 2.71 24.76 3.69 22.71 5.04C20.6 6.44 19 7.49 17.91 8.2C16.06 9.39 14.39 10.42 12.91 11.3C11.09 12.37 9.42 13.28 7.9 14.03C6.14 14.9 4.53 15.58 3.06 16.08C2.35 16.32 1.61 15.96 1.37 15.26C1.13 14.56 1.5 13.82 2.2 13.58Z" fill="#685BB8" fill-opacity="1.000000" fill-rule="evenodd"/>
</svg>
