<svg width="44.000000" height="27.000000" viewBox="0 0 44 27" fill="none" xmlns="http://www.w3.org/2000/svg" xmlns:xlink="http://www.w3.org/1999/xlink">
	<desc>
			Created with Pixso.
	</desc>
	<defs/>
	<path id="Vector (Border)" d="M33.19 1.82C32.13 3.15 30.94 4.26 29.62 5.15C28.44 5.95 27.13 6.58 25.68 7.05C24.5 7.44 23.15 7.75 21.62 7.97C21.03 8.06 20.35 8.14 19.6 8.22C19.16 8.26 18.49 8.33 17.6 8.41C17.18 8.44 16.87 8.47 16.66 8.49C15.33 8.61 14.24 8.74 13.4 8.87C12.27 9.05 11.25 9.28 10.35 9.56C9.33 9.89 8.39 10.29 7.55 10.79C7.46 10.84 7.37 10.9 7.28 10.95C6.45 11.47 5.68 12.08 4.98 12.8C4.46 13.33 3.63 13.34 3.1 12.82C2.57 12.31 2.57 11.48 3.08 10.95C3.87 10.15 4.73 9.44 5.65 8.85C5.83 8.73 6.02 8.62 6.2 8.5C7.22 7.91 8.34 7.42 9.56 7.04C10.58 6.71 11.72 6.45 12.99 6.25C13.89 6.11 15.03 5.98 16.41 5.85C16.63 5.83 16.94 5.8 17.37 5.77C18.24 5.69 18.9 5.63 19.33 5.58C20.04 5.51 20.68 5.43 21.24 5.35C22.61 5.15 23.82 4.88 24.85 4.54C26.07 4.14 27.16 3.61 28.14 2.95C29.24 2.22 30.23 1.29 31.11 0.17C31.58 -0.41 32.39 -0.5 32.98 -0.04C33.56 0.42 33.65 1.24 33.19 1.82Z" fill="#685BB8" fill-opacity="1.000000" fill-rule="evenodd"/>
	<path id="Vector (Border)" d="M42.04 2.69C41.87 3.06 41.69 3.43 41.49 3.79C40.83 5.01 40.04 6.15 39.12 7.23C37.98 8.56 36.67 9.75 35.2 10.8C33.77 11.82 32.22 12.68 30.55 13.38C30.04 13.59 29.52 13.79 29 13.97C27.85 14.37 26.67 14.68 25.46 14.91C24.66 15.06 23.75 15.17 22.75 15.23C22.16 15.26 21.29 15.29 20.13 15.31C19.3 15.32 18.68 15.34 18.27 15.35C17.6 15.38 17.01 15.42 16.48 15.48C14.25 15.73 12.18 16.32 10.29 17.26C9.95 17.44 9.6 17.62 9.27 17.82C8.77 18.11 8.29 18.42 7.83 18.76C6.26 19.9 4.89 21.31 3.72 22.98C3.29 23.59 2.48 23.73 1.87 23.31C1.26 22.88 1.12 22.07 1.55 21.46C2.42 20.22 3.39 19.1 4.46 18.11C5.21 17.42 6 16.79 6.83 16.23C7.19 15.98 7.55 15.75 7.93 15.53C8.13 15.41 8.33 15.3 8.53 15.19C9.59 14.62 10.7 14.15 11.87 13.77C13.25 13.32 14.69 13.01 16.19 12.85C16.78 12.78 17.44 12.74 18.17 12.71C18.59 12.69 19.24 12.67 20.08 12.66C21.21 12.64 22.04 12.61 22.59 12.58C23.48 12.53 24.27 12.44 24.97 12.3C26.08 12.09 27.17 11.8 28.22 11.43C28.66 11.28 29.1 11.11 29.53 10.93C31.01 10.31 32.39 9.55 33.66 8.64C34.96 7.72 36.11 6.67 37.11 5.5C37.95 4.52 38.66 3.47 39.25 2.36C39.39 2.1 39.52 1.84 39.64 1.58C39.95 0.9 40.73 0.62 41.4 0.93C42.07 1.24 42.36 2.02 42.04 2.69Z" fill="#685BB8" fill-opacity="1.000000" fill-rule="evenodd"/>
	<path id="Vector (Border)" d="M32.23 19.33C30.99 20.12 29.77 20.76 28.58 21.24C27.22 21.79 25.86 22.15 24.5 22.31C23.97 22.37 23.38 22.42 22.72 22.47C22.33 22.5 21.75 22.54 20.98 22.58C20.31 22.62 19.81 22.65 19.48 22.67C18.93 22.71 18.45 22.75 18.02 22.79C16.98 22.9 16.08 23.06 15.3 23.26C14.4 23.5 13.6 23.82 12.88 24.22C12.74 24.29 12.6 24.37 12.47 24.46C11.84 24.86 11.26 25.34 10.74 25.9C10.23 26.44 9.4 26.47 8.86 25.96C8.32 25.45 8.29 24.63 8.8 24.09C9.42 23.43 10.1 22.85 10.84 22.36C11.08 22.2 11.33 22.05 11.59 21.9C12.5 21.39 13.51 20.99 14.63 20.7C15.54 20.46 16.57 20.28 17.74 20.16C18.2 20.11 18.72 20.07 19.29 20.03C19.64 20 20.15 19.97 20.83 19.93C21.59 19.89 22.16 19.86 22.53 19.83C23.15 19.78 23.7 19.73 24.19 19.68C25.31 19.54 26.45 19.25 27.59 18.79C28.63 18.37 29.7 17.8 30.8 17.1C31.43 16.7 32.23 16.87 32.63 17.5C33.03 18.12 32.86 18.93 32.23 19.33Z" fill="#685BB8" fill-opacity="1.000000" fill-rule="evenodd"/>
</svg>
